<svg width="65" height="73" viewBox="0 0 65 73" fill="none" xmlns="http://www.w3.org/2000/svg">
<g clip-path="url(#clip0_424_1513)">
<path d="M51.2844 27.3613C51.2844 15.5845 43.0078 6.0376 32.7981 6.0376C22.5885 6.0376 14.3119 15.5845 14.3119 27.3613V45.6387C14.3119 57.4155 22.5885 66.9624 32.7981 66.9624C43.0078 66.9624 51.2844 57.4155 51.2844 45.6387V27.3613Z" stroke="white" stroke-width="2" stroke-linecap="round" stroke-linejoin="round"/>
<path d="M32.5 18.25V30.4167" stroke="white" stroke-width="2" stroke-linecap="round" stroke-linejoin="round"/>
<g filter="url(#filter0_d_424_1513)">
<path d="M13.7156 31.8346C43.1949 31.8346 51.442 31.8346 51.8807 31.8346M32.1401 7.6842V19.3935" stroke="white" stroke-width="2"/>
</g>
<path d="M32.5 6.0376V32.109" stroke="white" stroke-width="2"/>
<path d="M10.5 47.625H6.99996V50.4583L2.91663 45.5L6.99996 40.5416V43.375H10.5V47.625Z" stroke="white" stroke-width="2" stroke-linecap="round" stroke-linejoin="round"/>
<path d="M55.6621 42.4278L59.1617 42.4813L59.205 39.6483L63.212 44.6685L59.0534 49.5638L59.0967 46.7308L55.5971 46.6773L55.6621 42.4278Z" stroke="white" stroke-width="2" stroke-linecap="round" stroke-linejoin="round"/>
</g>
<defs>
<filter id="filter0_d_424_1513" x="9.71558" y="7.6842" width="46.1652" height="33.1504" filterUnits="userSpaceOnUse" color-interpolation-filters="sRGB">
<feFlood flood-opacity="0" result="BackgroundImageFix"/>
<feColorMatrix in="SourceAlpha" type="matrix" values="0 0 0 0 0 0 0 0 0 0 0 0 0 0 0 0 0 0 127 0" result="hardAlpha"/>
<feOffset dy="4"/>
<feGaussianBlur stdDeviation="2"/>
<feComposite in2="hardAlpha" operator="out"/>
<feColorMatrix type="matrix" values="0 0 0 0 0 0 0 0 0 0 0 0 0 0 0 0 0 0 0.25 0"/>
<feBlend mode="normal" in2="BackgroundImageFix" result="effect1_dropShadow_424_1513"/>
<feBlend mode="normal" in="SourceGraphic" in2="effect1_dropShadow_424_1513" result="shape"/>
</filter>
<clipPath id="clip0_424_1513">
<rect width="65" height="73" fill="white"/>
</clipPath>
</defs>
</svg>
