<svg width="65" height="73" viewBox="0 0 65 73" fill="none" xmlns="http://www.w3.org/2000/svg">
<path d="M51.2844 27.3613C51.2844 15.5845 43.0078 6.0376 32.7981 6.0376C22.5885 6.0376 14.3119 15.5845 14.3119 27.3613V45.6387C14.3119 57.4155 22.5885 66.9624 32.7981 66.9624C43.0078 66.9624 51.2844 57.4155 51.2844 45.6387V27.3613Z" stroke="white" stroke-width="2" stroke-linecap="round" stroke-linejoin="round"/>
<path d="M32.5 18.25V30.4167" stroke="white" stroke-width="2" stroke-linecap="round" stroke-linejoin="round"/>
<g filter="url(#filter0_d_256_1159)">
<path d="M13.7156 31.8346C43.1949 31.8346 51.442 31.8346 51.8807 31.8346M32.1401 7.6842V19.3935" stroke="white" stroke-width="2"/>
</g>
<path d="M32.5 6.0376V32.109" stroke="white" stroke-width="2"/>
<path d="M17.899 15.8828C20.6807 10.6023 25.9575 7.09952 31.9037 6.58643V31.5601H14.6101V28.2669V24.6992L15.2064 21.406L16.1009 18.6616L17.5918 16.4661L17.899 15.8828Z" fill="#FF9900"/>
<defs>
<filter id="filter0_d_256_1159" x="9.71558" y="7.6842" width="46.1652" height="33.1504" filterUnits="userSpaceOnUse" color-interpolation-filters="sRGB">
<feFlood flood-opacity="0" result="BackgroundImageFix"/>
<feColorMatrix in="SourceAlpha" type="matrix" values="0 0 0 0 0 0 0 0 0 0 0 0 0 0 0 0 0 0 127 0" result="hardAlpha"/>
<feOffset dy="4"/>
<feGaussianBlur stdDeviation="2"/>
<feComposite in2="hardAlpha" operator="out"/>
<feColorMatrix type="matrix" values="0 0 0 0 0 0 0 0 0 0 0 0 0 0 0 0 0 0 0.25 0"/>
<feBlend mode="normal" in2="BackgroundImageFix" result="effect1_dropShadow_256_1159"/>
<feBlend mode="normal" in="SourceGraphic" in2="effect1_dropShadow_256_1159" result="shape"/>
</filter>
</defs>
</svg>
